<?xml version="1.0" encoding="iso-8859-1"?>
<!-- Uploaded to: SVG Repo, www.svgrepo.com, Generator: SVG Repo Mixer Tools -->
<svg fill="#000000" height="800px" width="800px" version="1.1" id="Layer_1" xmlns="http://www.w3.org/2000/svg" xmlns:xlink="http://www.w3.org/1999/xlink" 
	 viewBox="0 0 512 512" xml:space="preserve">
<g>
	<g>
		<path d="M371.2,179.2h51.2c14.14,0,25.6-11.46,25.6-25.6v-128C448,11.46,436.54,0,422.4,0h-51.2c-14.14,0-25.6,11.46-25.6,25.6V64
			h-53.555C286.746,49.135,272.666,38.4,256,38.4S225.263,49.135,219.955,64H166.4V25.6c0-14.14-11.46-25.6-25.6-25.6H89.6
			C75.46,0,64,11.46,64,25.6v128c0,14.14,11.46,25.6,25.6,25.6h51.2c14.14,0,25.6-11.46,25.6-25.6v-64h53.555
			c3.866,10.846,12.399,19.379,23.245,23.245v286.319c-10.846,3.866-19.379,12.399-23.245,23.245H166.4V358.4
			c0-14.14-11.46-25.6-25.6-25.6H89.6c-14.14,0-25.6,11.46-25.6,25.6v128c0,14.14,11.46,25.6,25.6,25.6h51.2
			c14.14,0,25.6-11.46,25.6-25.6V448h53.555c5.299,14.865,19.379,25.6,36.045,25.6s30.737-10.735,36.045-25.6H345.6v38.4
			c0,14.14,11.46,25.6,25.6,25.6h51.2c14.14,0,25.6-11.46,25.6-25.6v-128c0-14.14-11.46-25.6-25.6-25.6h-51.2
			c-14.14,0-25.6,11.46-25.6,25.6v64h-53.555c-3.866-10.846-12.399-19.379-23.245-23.245v-286.31
			c10.846-3.866,19.379-12.399,23.245-23.245H345.6v64C345.6,167.74,357.06,179.2,371.2,179.2z M371.2,25.6h51.2v128h-51.2V25.6z
			 M140.8,153.6H89.6v-128h51.2V153.6z M140.8,486.4H89.6v-128h51.2V486.4z M371.2,358.4h51.2v128h-51.2V358.4z M256,448
			c-7.066,0-12.8-5.734-12.8-12.8c0-7.074,5.734-12.8,12.8-12.8c7.066,0,12.8,5.726,12.8,12.8C268.8,442.266,263.066,448,256,448z
			 M256,89.6c-7.066,0-12.8-5.734-12.8-12.8c0-7.074,5.734-12.8,12.8-12.8c7.066,0,12.8,5.726,12.8,12.8
			C268.8,83.866,263.066,89.6,256,89.6z"/>
	</g>
</g>
</svg>