<?xml version="1.0" encoding="utf-8"?>

<!DOCTYPE svg PUBLIC "-//W3C//DTD SVG 1.1//EN" "http://www.w3.org/Graphics/SVG/1.1/DTD/svg11.dtd">
<!-- Uploaded to: SVG Repo, www.svgrepo.com, Generator: SVG Repo Mixer Tools -->
<svg version="1.1" id="_x32_" xmlns="http://www.w3.org/2000/svg" xmlns:xlink="http://www.w3.org/1999/xlink" 
	 viewBox="0 0 512 512"  xml:space="preserve">
<style type="text/css">
	.st0{fill:#000000;}
</style>
<g>
	<path class="st0" d="M162.408,306.27c-11.012,0-19.938,8.927-19.938,19.921c0,11.003,8.927,19.93,19.938,19.93
		c10.994,0,19.903-8.927,19.903-19.93C182.311,315.196,173.402,306.27,162.408,306.27z"/>
	<path class="st0" d="M373.821,314.427h-19.013v-19.013c0-3.962-3.226-7.189-7.188-7.189h-7.612c-3.979,0-7.188,3.227-7.188,7.189
		v19.013h-19.004c-3.97,0-7.188,3.226-7.188,7.188v7.603c0,3.961,3.218,7.188,7.188,7.188h19.004v19.013
		c0,3.979,3.209,7.197,7.188,7.197h7.612c3.962,0,7.188-3.218,7.188-7.197v-19.013h19.013c3.971,0,7.189-3.227,7.189-7.188v-7.603
		C381.01,317.653,377.792,314.427,373.821,314.427z"/>
	<path class="st0" d="M241.555,56.571v95.547h28.891V56.571c9.36-5.138,15.769-14.956,15.769-26.374C286.214,13.52,272.677,0,256,0
		c-16.686,0-30.197,13.52-30.197,30.197C225.803,41.615,232.213,51.45,241.555,56.571z"/>
	<rect x="201.029" y="170.577" class="st0" width="109.941" height="40.603"/>
	<path class="st0" d="M420.098,230.997H91.91c-17.68,0-32.022,14.324-32.022,32.005v216.967C59.888,497.668,74.23,512,91.91,512
		h328.188c17.673,0,32.014-14.332,32.014-32.031V263.002C452.112,245.322,437.771,230.997,420.098,230.997z M162.408,386.282
		c-33.19,0-60.1-26.91-60.1-60.092c0-33.19,26.91-60.082,60.1-60.082c33.172,0,60.074,26.892,60.074,60.082
		C222.481,359.372,195.58,386.282,162.408,386.282z M396.069,476.423H356.14v-39.928h39.928V476.423z M342.353,386.282
		c-33.181,0-60.091-26.91-60.091-60.092c0-33.19,26.91-60.082,60.091-60.082c33.19,0,60.092,26.892,60.092,60.082
		C402.444,359.372,375.543,386.282,342.353,386.282z"/>
</g>
</svg>