<?xml version="1.0" encoding="iso-8859-1"?>
<!-- Uploaded to: SVG Repo, www.svgrepo.com, Generator: SVG Repo Mixer Tools -->
<svg fill="#000000" height="800px" width="800px" version="1.1" id="Layer_1" xmlns="http://www.w3.org/2000/svg" xmlns:xlink="http://www.w3.org/1999/xlink" 
	 viewBox="0 0 512 512" xml:space="preserve">
<g>
	<g>
		<path d="M78.097,164.963c0,10.691,0,333.762,0,347.036h34.841c0-8.984,0-337.069,0-347.036H78.097z"/>
	</g>
</g>
<g>
	<g>
		<path d="M2.354,226.753v223.456c0,27.107,17.553,50.177,41.884,58.481c0-9.145,0-331.273,0-340.419
			C19.908,176.576,2.354,199.646,2.354,226.753z"/>
	</g>
</g>
<g>
	<g>
		<path d="M498.007,38.362L384.123,0.853c-8.853-2.919-18.446,1.887-21.376,10.784l-12.573,38.175
			c-2.925,8.88,1.903,18.45,10.784,21.376l10.313,3.397l-14.852,45.094h-4.124c-9.35,0-16.929,7.58-16.929,16.929
			c0,7.012,4.264,13.029,10.339,15.599l-10.474,31.801h-7.201c-9.35,0-16.929,7.58-16.929,16.929c0,8.04,5.61,14.756,13.124,16.485
			l-6.979,21.19l-10.313-3.397c-8.884-2.928-18.452,1.903-21.376,10.784l-12.573,38.174c-1.347,4.091-1.033,8.319,0.548,11.985
			h-83.164v-69.406c0-27.732-18.366-51.253-43.572-59.046c0,12.032,0,327.983,0,341.549c25.206-7.793,43.572-31.313,43.572-59.046
			v-69.406h91.231c12.273,14.973,30.901,24.547,51.728,24.547c35.136,0,64.007-27.244,66.65-61.714
			c8.388,1.497,16.443-3.432,19.053-11.361l12.573-38.175c2.925-8.88-1.903-18.451-10.784-21.376l-10.313-3.396l16.948-51.46h4.784
			c9.35,0,16.929-7.58,16.929-16.929c0-7.234-4.546-13.39-10.929-15.815l10.403-31.585h5.103c9.35,0,16.929-7.58,16.929-16.929
			c0-7.341-4.682-13.573-11.214-15.919l5.069-15.389l10.313,3.397c8.852,2.919,18.443-1.879,21.376-10.784l12.573-38.175
			C511.716,50.858,506.889,41.287,498.007,38.362z M333.328,371.492c-18.202,0-33.01-14.807-33.01-33.01
			c0-18.201,14.808-33.009,33.01-33.009c18.201,0,33.01,14.807,33.01,33.009C366.337,356.683,351.529,371.492,333.328,371.492z"/>
	</g>
</g>
</svg>